Coordinates
version=1
nRows=5
nColumns=42
inDegrees=yes

Units are S.I. units (second, meters, Newtons, ...)
If the header above contains a line with 'inDegrees', this indicates whether rotational values are in degrees (yes) or radians (no).

endheader
time	pelvis_tilt	pelvis_list	pelvis_rotation	pelvis_tx	pelvis_ty	pelvis_tz	hip_flexion_r	hip_adduction_r	hip_rotation_r	knee_angle_r	knee_adduction_r	knee_angle_r_beta	ankle_angle_r	subtalar_angle_r	mtp_angle_r	hip_flexion_l	hip_adduction_l	hip_rotation_l	knee_angle_l	knee_adduction_l	knee_angle_l_beta	ankle_angle_l	subtalar_angle_l	mtp_angle_l	lumbar_extension	lumbar_bending	lumbar_rotation	arm_flex_r	arm_add_r	arm_rot_r	elbow_flex_r	pro_sup_r	wrist_flex_r	wrist_dev_r	arm_flex_l	arm_add_l	arm_rot_l	elbow_flex_l	pro_sup_l	wrist_flex_l	wrist_dev_l
      0.00000000	     13.65913390	     -1.27763327	      3.25762704	     -1.13357341	      0.85295543	     -0.26845180	     10.97261170	      1.42997381	     -7.93332740	     16.74106221	      1.68019187	      0.29218666	     12.38764143	     -9.37277610	     -9.42423699	    -26.46476046	     -3.66451448	    -11.75568140	      1.82433685	      9.03707876	      0.03184068	     22.90902984	      7.44554613	     -9.42423699	    -26.58551204	      1.86932611	      2.64508096	    -13.57534760	     -5.73797086	    -10.98981002	     29.55622566	     90.00000001	      0.00000000	      0.00000000	     29.25427058	     -8.85548827	      2.32013841	     42.12403328	     90.00000001	      0.00000000	      0.00000000
      0.01000000	     13.59286793	     -1.04899697	      3.49526558	     -1.12320098	      0.85103910	     -0.26840378	     10.98825040	      1.12376478	     -8.59464444	     14.10966955	      1.75250059	      0.24626019	     12.32732434	     -7.65493915	     -9.36043257	    -27.11914780	     -3.48096398	    -11.45802596	      1.90458036	      8.79544290	      0.03324120	     23.24434284	      7.55942556	     -9.36043257	    -26.48667553	      1.75439062	      2.42292938	    -14.14932185	     -5.58178262	    -11.05821303	     29.35886473	     90.00000001	      0.00000000	      0.00000000	     29.76915360	     -8.91899687	      2.70875267	     43.12049408	     90.00000001	      0.00000000	      0.00000000
      0.02000000	     13.46876109	     -0.73307439	      3.71235292	     -1.11287876	      0.84911581	     -0.26835607	     11.11263395	      0.67063092	     -9.37438279	     11.90951873	      1.85312398	      0.20786031	     12.16492481	     -5.87082629	     -9.31077318	    -27.64668445	     -3.17716544	    -11.14531556	      2.10903758	      8.45939078	      0.03680965	     23.60104313	      7.73774933	     -9.31077318	    -26.35322011	      1.55256550	      2.20457566	    -14.64562916	     -5.41237531	    -11.19952035	     29.18322756	     90.00000001	      0.00000000	      0.00000000	     30.26431127	     -8.97183493	      3.13657100	     44.02707270	     90.00000001	      0.00000000	      0.00000000
      0.03000000	     13.31923583	     -0.42291558	      3.94711627	     -1.10246241	      0.84727010	     -0.26825944	     11.26600962	      0.20850387	    -10.17429323	     10.11318268	      1.95107795	      0.17650834	     11.95842130	     -4.33014906	     -9.27907439	    -28.11926803	     -2.88270347	    -10.76621287	      2.38424987	      8.05487420	      0.04161301	     23.82336264	      7.77791535	     -9.27907439	    -26.19362791	      1.36310375	      1.96435188	    -15.07818624	     -5.24255432	    -11.36730735	     29.02726129	     90.00000001	      0.00000000	      0.00000000	     30.67556904	     -9.03589092	      3.54913643	     44.84842914	     90.00000001	      0.00000000	      0.00000000
      0.04000000	     12.98416574	     -0.20524622	      3.89342830	     -1.09210137	      0.84520687	     -0.26778654	     11.92328073	     -0.10939764	    -10.92098262	      9.26266411	      1.93906838	      0.16166399	     11.88910830	     -3.87344039	     -9.26298528	    -28.43523972	     -2.63245118	    -10.62883320	      2.64373435	      7.87192175	      0.04614187	     23.87669367	      7.81460188	     -9.26298528	    -25.84565399	      1.17981339	      2.10386739	    -15.50453495	     -5.14315585	    -11.41017410	     28.86238438	     90.00000001	      0.00000000	      0.00000000	     31.09576800	     -8.86134749	      3.71534037	     45.40737928	     90.00000001	      0.00000000	      0.00000000
